{
  "accessors": [
    {
      "bufferView": 2,
      "componentType": 5126,
      "count": 21769,
      "max": [
        0.431312620639801,
        -7.4119062423706055,
        5.1225996017456055
      ],
      "min": [
        -0.2840574085712433,
        -8.226231575012207,
        3.167187452316284
      ],
      "type": "VEC3"
    },
    {
      "bufferView": 2,
      "byteOffset": 261228,
      "componentType": 5126,
      "count": 21769,
      "max": [
        0.9999741315841675,
        0.9999833106994629,
        0.9993127584457397
      ],
      "min": [
        -0.9998641610145569,
        -0.999911367893219,
        -0.9998259544372559
      ],
      "type": "VEC3"
    },
    {
      "bufferView": 3,
      "componentType": 5126,
      "count": 21769,
      "max": [
        0.954276442527771,
        0.999971330165863,
        0.9999701380729675,
        -1.0
      ],
      "min": [
        -0.9788348078727722,
        -0.9994993805885315,
        -0.9226770997047424,
        -1.0
      ],
      "type": "VEC4"
    },
    {
      "bufferView": 3,
      "byteOffset": 348304,
      "componentType": 5126,
      "count": 21769,
      "max": [
        0.9058823585510254,
        0.8941176533699036,
        0.8705882430076599,
        1.0
      ],
      "min": [
        0.7607843279838562,
        0.7411764860153198,
        0.6000000238418579,
        1.0
      ],
      "type": "VEC4"
    },
    {
      "bufferView": 1,
      "componentType": 5126,
      "count": 21769,
      "max": [
        0.9980400204658508,
        0.9980400204658508
      ],
      "min": [
        0.027009999379515648,
        0.0019499999471008778
      ],
      "type": "VEC2"
    },
    {
      "bufferView": 0,
      "componentType": 5125,
      "count": 129000,
      "type": "SCALAR"
    }
  ],
  "asset": {
    "extras": {
      "author": "University of Dundee, School of Dentistry (https://sketchfab.com/DundeeDental)",
      "license": "CC-BY-4.0 (http://creativecommons.org/licenses/by/4.0/)",
      "source": "https://sketchfab.com/3d-models/maxillary-left-central-incisor-c8a7c2d9280d4c92bc651cfa1459866a",
      "title": "Maxillary Left Central Incisor"
    },
    "generator": "Sketchfab-15.11.0",
    "version": "2.0"
  },
  "bufferViews": [
    {
      "buffer": 0,
      "byteLength": 516000,
      "name": "floatBufferViews",
      "target": 34963
    },
    {
      "buffer": 0,
      "byteLength": 174152,
      "byteOffset": 516000,
      "byteStride": 8,
      "name": "floatBufferViews",
      "target": 34962
    },
    {
      "buffer": 0,
      "byteLength": 522456,
      "byteOffset": 690152,
      "byteStride": 12,
      "name": "floatBufferViews",
      "target": 34962
    },
    {
      "buffer": 0,
      "byteLength": 696608,
      "byteOffset": 1212608,
      "byteStride": 16,
      "name": "floatBufferViews",
      "target": 34962
    }
  ],
  "buffers": [
    {
      "byteLength": 1909216,
      "uri": "scene.bin"
    }
  ],
  "extensionsUsed": [
    "KHR_materials_specular"
  ],
  "images": [
    {
      "uri": "textures/defaultMat_baseColor.png"
    },
    {
      "uri": "textures/defaultMat_normal.png"
    }
  ],
  "materials": [
    {
      "doubleSided": true,
      "extensions": {
        "KHR_materials_specular": {
          "specularColorFactor": [
            1.0,
            1.0,
            1.0
          ],
          "specularFactor": 0.01
        }
      },
      "name": "defaultMat",
      "normalTexture": {
        "index": 1
      },
      "pbrMetallicRoughness": {
        "baseColorTexture": {
          "index": 0
        },
        "metallicFactor": 0.0,
        "roughnessFactor": 0.2
      }
    }
  ],
  "meshes": [
    {
      "name": "Object_0",
      "primitives": [
        {
          "attributes": {
            "COLOR_0": 3,
            "NORMAL": 1,
            "POSITION": 0,
            "TANGENT": 2,
            "TEXCOORD_0": 4
          },
          "indices": 5,
          "material": 0,
          "mode": 4
        }
      ]
    }
  ],
  "nodes": [
    {
      "children": [
        1
      ],
      "matrix": [
        0.4472799003124237,
        0.0,
        0.0,
        0.0,
        0.0,
        9.931608875577951e-17,
        -0.4472799003124237,
        0.0,
        0.0,
        0.4472799003124237,
        9.931608875577951e-17,
        0.0,
        0.0,
        0.0,
        0.0,
        1.0
      ],
      "name": "Sketchfab_model"
    },
    {
      "children": [
        2
      ],
      "name": "UL1sketch1_1.OBJ.cleaner"
    },
    {
      "mesh": 0,
      "name": "Object_2"
    }
  ],
  "samplers": [
    {
      "magFilter": 9728,
      "minFilter": 9728,
      "wrapS": 10497,
      "wrapT": 10497
    }
  ],
  "scene": 0,
  "scenes": [
    {
      "name": "Sketchfab_Scene",
      "nodes": [
        0
      ]
    }
  ],
  "textures": [
    {
      "sampler": 0,
      "source": 0
    },
    {
      "sampler": 0,
      "source": 1
    }
  ]
}
