{
  "accessors": [
    {
      "bufferView": 2,
      "componentType": 5126,
      "count": 25807,
      "max": [
        3.059309720993042,
        -2.692854881286621,
        5.145657539367676
      ],
      "min": [
        2.137439727783203,
        -3.5596439838409424,
        3.5618531703948975
      ],
      "type": "VEC3"
    },
    {
      "bufferView": 2,
      "byteOffset": 309684,
      "componentType": 5126,
      "count": 25807,
      "max": [
        0.9997460246086121,
        0.9999507069587708,
        0.9994087815284729
      ],
      "min": [
        -0.9999517798423767,
        -0.9999954700469971,
        -0.999994695186615
      ],
      "type": "VEC3"
    },
    {
      "bufferView": 3,
      "componentType": 5126,
      "count": 25807,
      "max": [
        0.8352941274642944,
        0.8313725590705872,
        0.8117647171020508,
        1.0
      ],
      "min": [
        0.7450980544090271,
        0.6941176652908325,
        0.5764706134796143,
        1.0
      ],
      "type": "VEC4"
    },
    {
      "bufferView": 1,
      "componentType": 5126,
      "count": 25807,
      "max": [
        0.9980400204658508,
        0.9506999850273132
      ],
      "min": [
        0.0019499999471008778,
        0.0019499999471008778
      ],
      "type": "VEC2"
    },
    {
      "bufferView": 0,
      "componentType": 5125,
      "count": 152664,
      "type": "SCALAR"
    }
  ],
  "asset": {
    "extras": {
      "author": "University of Dundee, School of Dentistry (https://sketchfab.com/DundeeDental)",
      "license": "CC-BY-4.0 (http://creativecommons.org/licenses/by/4.0/)",
      "source": "https://sketchfab.com/3d-models/maxillary-third-molar-1b3c50ded70c4b6297d4526a733a9cf1",
      "title": "Maxillary Third Molar"
    },
    "generator": "Sketchfab-15.11.0",
    "version": "2.0"
  },
  "bufferViews": [
    {
      "buffer": 0,
      "byteLength": 610656,
      "name": "floatBufferViews",
      "target": 34963
    },
    {
      "buffer": 0,
      "byteLength": 206456,
      "byteOffset": 610656,
      "byteStride": 8,
      "name": "floatBufferViews",
      "target": 34962
    },
    {
      "buffer": 0,
      "byteLength": 619368,
      "byteOffset": 817112,
      "byteStride": 12,
      "name": "floatBufferViews",
      "target": 34962
    },
    {
      "buffer": 0,
      "byteLength": 412912,
      "byteOffset": 1436480,
      "byteStride": 16,
      "name": "floatBufferViews",
      "target": 34962
    }
  ],
  "buffers": [
    {
      "byteLength": 1849392,
      "uri": "scene.bin"
    }
  ],
  "extensionsUsed": [
    "KHR_materials_specular"
  ],
  "images": [
    {
      "uri": "textures/defaultMat_baseColor.png"
    }
  ],
  "materials": [
    {
      "doubleSided": true,
      "extensions": {
        "KHR_materials_specular": {
          "specularColorFactor": [
            1.0,
            1.0,
            1.0
          ],
          "specularFactor": 0.01
        }
      },
      "name": "defaultMat",
      "pbrMetallicRoughness": {
        "baseColorTexture": {
          "index": 0
        },
        "metallicFactor": 0.0,
        "roughnessFactor": 0.22
      }
    }
  ],
  "meshes": [
    {
      "name": "Object_0",
      "primitives": [
        {
          "attributes": {
            "COLOR_0": 2,
            "NORMAL": 1,
            "POSITION": 0,
            "TEXCOORD_0": 3
          },
          "indices": 4,
          "material": 0,
          "mode": 4
        }
      ]
    }
  ],
  "nodes": [
    {
      "children": [
        1
      ],
      "matrix": [
        0.993241548538208,
        2.7506521459356548e-17,
        -0.1160658597946167,
        0.0,
        -0.11442776769399643,
        -0.16741512715816476,
        -0.979223370552063,
        0.0,
        -0.019431181252002716,
        0.9858865141868591,
        -0.1662836670875547,
        0.0,
        0.0,
        0.0,
        0.0,
        1.0
      ],
      "name": "Sketchfab_model"
    },
    {
      "children": [
        2
      ],
      "name": "UL8sketch_1.OBJ.cleaner.gles"
    },
    {
      "mesh": 0,
      "name": "Object_2"
    }
  ],
  "samplers": [
    {
      "magFilter": 9728,
      "minFilter": 9728,
      "wrapS": 10497,
      "wrapT": 10497
    }
  ],
  "scene": 0,
  "scenes": [
    {
      "name": "Sketchfab_Scene",
      "nodes": [
        0
      ]
    }
  ],
  "textures": [
    {
      "sampler": 0,
      "source": 0
    }
  ]
}
