{
  "accessors": [
    {
      "bufferView": 2,
      "componentType": 5126,
      "count": 23913,
      "max": [
        1.9528826475143433,
        -5.729665279388428,
        3.3556971549987793
      ],
      "min": [
        1.1677666902542114,
        -6.496024131774902,
        1.3255102634429932
      ],
      "type": "VEC3"
    },
    {
      "bufferView": 2,
      "byteOffset": 286956,
      "componentType": 5126,
      "count": 23913,
      "max": [
        0.9997398853302002,
        0.9999669194221497,
        0.9998500347137451
      ],
      "min": [
        -0.9999952912330627,
        -0.9999987483024597,
        -0.9999053478240967
      ],
      "type": "VEC3"
    },
    {
      "bufferView": 3,
      "componentType": 5126,
      "count": 23913,
      "max": [
        0.989190399646759,
        0.9997775554656982,
        0.9997560977935791,
        -1.0
      ],
      "min": [
        -0.9999275207519531,
        -0.8812767267227173,
        -0.999679446220398,
        -1.0
      ],
      "type": "VEC4"
    },
    {
      "bufferView": 3,
      "byteOffset": 382608,
      "componentType": 5126,
      "count": 23913,
      "max": [
        0.9960784316062927,
        0.9960784316062927,
        0.9960784316062927,
        1.0
      ],
      "min": [
        0.7372549176216125,
        0.7176470756530762,
        0.5960784554481506,
        1.0
      ],
      "type": "VEC4"
    },
    {
      "bufferView": 1,
      "componentType": 5126,
      "count": 23913,
      "max": [
        0.9980400204658508,
        0.7308700084686279
      ],
      "min": [
        0.0019499999471008778,
        0.0019499999471008778
      ],
      "type": "VEC2"
    },
    {
      "bufferView": 0,
      "componentType": 5125,
      "count": 141792,
      "type": "SCALAR"
    }
  ],
  "asset": {
    "extras": {
      "author": "University of Dundee, School of Dentistry (https://sketchfab.com/DundeeDental)",
      "license": "CC-BY-4.0 (http://creativecommons.org/licenses/by/4.0/)",
      "source": "https://sketchfab.com/3d-models/mandibular-first-premolar-935637a703dc49eb9eeec9b15a8a5c4c",
      "title": "Mandibular First Premolar"
    },
    "generator": "Sketchfab-15.11.0",
    "version": "2.0"
  },
  "bufferViews": [
    {
      "buffer": 0,
      "byteLength": 567168,
      "name": "floatBufferViews",
      "target": 34963
    },
    {
      "buffer": 0,
      "byteLength": 191304,
      "byteOffset": 567168,
      "byteStride": 8,
      "name": "floatBufferViews",
      "target": 34962
    },
    {
      "buffer": 0,
      "byteLength": 573912,
      "byteOffset": 758472,
      "byteStride": 12,
      "name": "floatBufferViews",
      "target": 34962
    },
    {
      "buffer": 0,
      "byteLength": 765216,
      "byteOffset": 1332384,
      "byteStride": 16,
      "name": "floatBufferViews",
      "target": 34962
    }
  ],
  "buffers": [
    {
      "byteLength": 2097600,
      "uri": "scene.bin"
    }
  ],
  "extensionsUsed": [
    "KHR_materials_specular"
  ],
  "images": [
    {
      "uri": "textures/defaultMat_baseColor.png"
    },
    {
      "uri": "textures/defaultMat_normal.png"
    }
  ],
  "materials": [
    {
      "doubleSided": true,
      "extensions": {
        "KHR_materials_specular": {
          "specularColorFactor": [
            1.0,
            1.0,
            1.0
          ],
          "specularFactor": 0.02
        }
      },
      "name": "defaultMat",
      "normalTexture": {
        "index": 1,
        "scale": 0.26
      },
      "pbrMetallicRoughness": {
        "baseColorTexture": {
          "index": 0
        },
        "metallicFactor": 0.0,
        "roughnessFactor": 0.2
      }
    }
  ],
  "meshes": [
    {
      "name": "Object_0",
      "primitives": [
        {
          "attributes": {
            "COLOR_0": 3,
            "NORMAL": 1,
            "POSITION": 0,
            "TANGENT": 2,
            "TEXCOORD_0": 4
          },
          "indices": 5,
          "material": 0,
          "mode": 4
        }
      ]
    }
  ],
  "nodes": [
    {
      "children": [
        1
      ],
      "matrix": [
        0.43312010169029236,
        0.0,
        0.0,
        0.0,
        0.0,
        9.617198186491035e-17,
        -0.43312010169029236,
        0.0,
        0.0,
        0.43312010169029236,
        9.617198186491035e-17,
        0.0,
        0.0,
        0.0,
        0.0,
        1.0
      ],
      "name": "Sketchfab_model"
    },
    {
      "children": [
        2
      ],
      "name": "L4sketch_1.OBJ.cleaner"
    },
    {
      "mesh": 0,
      "name": "Object_2"
    }
  ],
  "samplers": [
    {
      "magFilter": 9728,
      "minFilter": 9728,
      "wrapS": 10497,
      "wrapT": 10497
    }
  ],
  "scene": 0,
  "scenes": [
    {
      "name": "Sketchfab_Scene",
      "nodes": [
        0
      ]
    }
  ],
  "textures": [
    {
      "sampler": 0,
      "source": 0
    },
    {
      "sampler": 0,
      "source": 1
    }
  ]
}
