{
  "accessors": [
    {
      "bufferView": 2,
      "componentType": 5126,
      "count": 22027,
      "max": [
        2.2825937271118164,
        -5.986135482788086,
        4.9991865158081055
      ],
      "min": [
        1.5031378269195557,
        -6.63870906829834,
        3.3175625801086426
      ],
      "type": "VEC3"
    },
    {
      "bufferView": 2,
      "byteOffset": 264324,
      "componentType": 5126,
      "count": 22027,
      "max": [
        0.9999974966049194,
        0.9999812245368958,
        0.9995101094245911
      ],
      "min": [
        -0.9999108910560608,
        -0.9972426891326904,
        -0.9999710917472839
      ],
      "type": "VEC3"
    },
    {
      "bufferView": 3,
      "componentType": 5126,
      "count": 22027,
      "max": [
        0.743122398853302,
        0.8557238578796387,
        0.9999976754188538,
        -1.0
      ],
      "min": [
        -0.9999012351036072,
        -0.9999741315841675,
        -0.9268198609352112,
        -1.0
      ],
      "type": "VEC4"
    },
    {
      "bufferView": 3,
      "byteOffset": 352432,
      "componentType": 5126,
      "count": 22027,
      "max": [
        0.8901960849761963,
        0.8588235378265381,
        0.8509804010391235,
        1.0
      ],
      "min": [
        0.7450980544090271,
        0.6901960968971252,
        0.5647059082984924,
        1.0
      ],
      "type": "VEC4"
    },
    {
      "bufferView": 1,
      "componentType": 5126,
      "count": 22027,
      "max": [
        0.9980400204658508,
        0.85794997215271
      ],
      "min": [
        0.0019499999471008778,
        0.0019499999471008778
      ],
      "type": "VEC2"
    },
    {
      "bufferView": 0,
      "componentType": 5125,
      "count": 130800,
      "type": "SCALAR"
    }
  ],
  "asset": {
    "extras": {
      "author": "University of Dundee, School of Dentistry (https://sketchfab.com/DundeeDental)",
      "license": "CC-BY-4.0 (http://creativecommons.org/licenses/by/4.0/)",
      "source": "https://sketchfab.com/3d-models/maxillary-second-premolar-69f3142830064588b000b04bea0ee09f",
      "title": "Maxillary Second Premolar"
    },
    "generator": "Sketchfab-15.11.0",
    "version": "2.0"
  },
  "bufferViews": [
    {
      "buffer": 0,
      "byteLength": 523200,
      "name": "floatBufferViews",
      "target": 34963
    },
    {
      "buffer": 0,
      "byteLength": 176216,
      "byteOffset": 523200,
      "byteStride": 8,
      "name": "floatBufferViews",
      "target": 34962
    },
    {
      "buffer": 0,
      "byteLength": 528648,
      "byteOffset": 699416,
      "byteStride": 12,
      "name": "floatBufferViews",
      "target": 34962
    },
    {
      "buffer": 0,
      "byteLength": 704864,
      "byteOffset": 1228064,
      "byteStride": 16,
      "name": "floatBufferViews",
      "target": 34962
    }
  ],
  "buffers": [
    {
      "byteLength": 1932928,
      "uri": "scene.bin"
    }
  ],
  "extensionsUsed": [
    "KHR_materials_specular"
  ],
  "images": [
    {
      "uri": "textures/defaultMat_baseColor.png"
    },
    {
      "uri": "textures/defaultMat_normal.png"
    }
  ],
  "materials": [
    {
      "doubleSided": true,
      "extensions": {
        "KHR_materials_specular": {
          "specularColorFactor": [
            1.0,
            1.0,
            1.0
          ],
          "specularFactor": 0.01
        }
      },
      "name": "defaultMat",
      "normalTexture": {
        "index": 1
      },
      "pbrMetallicRoughness": {
        "baseColorTexture": {
          "index": 0
        },
        "metallicFactor": 0.0,
        "roughnessFactor": 0.2
      }
    }
  ],
  "meshes": [
    {
      "name": "Object_0",
      "primitives": [
        {
          "attributes": {
            "COLOR_0": 3,
            "NORMAL": 1,
            "POSITION": 0,
            "TANGENT": 2,
            "TEXCOORD_0": 4
          },
          "indices": 5,
          "material": 0,
          "mode": 4
        }
      ]
    }
  ],
  "nodes": [
    {
      "children": [
        1
      ],
      "matrix": [
        0.5086490511894226,
        0.0,
        0.0,
        0.0,
        0.0,
        1.1294277761684737e-16,
        -0.5086490511894226,
        0.0,
        0.0,
        0.5086490511894226,
        1.1294277761684737e-16,
        0.0,
        0.0,
        0.0,
        0.0,
        1.0
      ],
      "name": "Sketchfab_model"
    },
    {
      "children": [
        2
      ],
      "name": "UL5sketch_1.OBJ.cleaner"
    },
    {
      "mesh": 0,
      "name": "Object_2"
    }
  ],
  "samplers": [
    {
      "magFilter": 9728,
      "minFilter": 9728,
      "wrapS": 10497,
      "wrapT": 10497
    },
    {
      "magFilter": 9729,
      "minFilter": 9987,
      "wrapS": 10497,
      "wrapT": 10497
    }
  ],
  "scene": 0,
  "scenes": [
    {
      "name": "Sketchfab_Scene",
      "nodes": [
        0
      ]
    }
  ],
  "textures": [
    {
      "sampler": 0,
      "source": 0
    },
    {
      "sampler": 1,
      "source": 1
    }
  ]
}
