{
  "accessors": [
    {
      "bufferView": 2,
      "componentType": 5126,
      "count": 28875,
      "max": [
        2.687089681625366,
        -5.0778117179870605,
        5.094022274017334
      ],
      "min": [
        1.6476829051971436,
        -6.071188449859619,
        3.3091015815734863
      ],
      "type": "VEC3"
    },
    {
      "bufferView": 2,
      "byteOffset": 346500,
      "componentType": 5126,
      "count": 28875,
      "max": [
        0.9999957084655762,
        0.9999454021453857,
        0.9998124241828918
      ],
      "min": [
        -0.9998912811279297,
        -0.9999985098838806,
        -0.9999690055847168
      ],
      "type": "VEC3"
    },
    {
      "bufferView": 3,
      "componentType": 5126,
      "count": 28875,
      "max": [
        0.9999316930770874,
        0.9999847412109375,
        0.9592912197113037,
        -1.0
      ],
      "min": [
        -0.9727120995521545,
        -0.999883234500885,
        -0.9999591112136841,
        -1.0
      ],
      "type": "VEC4"
    },
    {
      "bufferView": 3,
      "byteOffset": 462000,
      "componentType": 5126,
      "count": 28875,
      "max": [
        0.886274516582489,
        0.8823529481887817,
        0.8705882430076599,
        1.0
      ],
      "min": [
        0.7529411911964417,
        0.7254902124404907,
        0.6117647290229797,
        1.0
      ],
      "type": "VEC4"
    },
    {
      "bufferView": 1,
      "componentType": 5126,
      "count": 28875,
      "max": [
        0.9980400204658508,
        0.9980400204658508
      ],
      "min": [
        0.054019998759031296,
        0.0019499999471008778
      ],
      "type": "VEC2"
    },
    {
      "bufferView": 0,
      "componentType": 5125,
      "count": 171024,
      "type": "SCALAR"
    }
  ],
  "asset": {
    "extras": {
      "author": "University of Dundee, School of Dentistry (https://sketchfab.com/DundeeDental)",
      "license": "CC-BY-4.0 (http://creativecommons.org/licenses/by/4.0/)",
      "source": "https://sketchfab.com/3d-models/maxillary-first-molar-e719a474ef7e4bd7abec508f85f1e984",
      "title": "Maxillary First Molar"
    },
    "generator": "Sketchfab-15.11.0",
    "version": "2.0"
  },
  "bufferViews": [
    {
      "buffer": 0,
      "byteLength": 684096,
      "name": "floatBufferViews",
      "target": 34963
    },
    {
      "buffer": 0,
      "byteLength": 231000,
      "byteOffset": 684096,
      "byteStride": 8,
      "name": "floatBufferViews",
      "target": 34962
    },
    {
      "buffer": 0,
      "byteLength": 693000,
      "byteOffset": 915096,
      "byteStride": 12,
      "name": "floatBufferViews",
      "target": 34962
    },
    {
      "buffer": 0,
      "byteLength": 924000,
      "byteOffset": 1608096,
      "byteStride": 16,
      "name": "floatBufferViews",
      "target": 34962
    }
  ],
  "buffers": [
    {
      "byteLength": 2532096,
      "uri": "scene.bin"
    }
  ],
  "extensionsUsed": [
    "KHR_materials_specular"
  ],
  "images": [
    {
      "uri": "textures/defaultMat_baseColor.png"
    },
    {
      "uri": "textures/defaultMat_normal.png"
    }
  ],
  "materials": [
    {
      "extensions": {
        "KHR_materials_specular": {
          "specularColorFactor": [
            1.0,
            1.0,
            1.0
          ],
          "specularFactor": 0.01
        }
      },
      "name": "defaultMat",
      "normalTexture": {
        "index": 1
      },
      "pbrMetallicRoughness": {
        "baseColorTexture": {
          "index": 0
        },
        "metallicFactor": 0.0,
        "roughnessFactor": 0.2
      }
    }
  ],
  "meshes": [
    {
      "name": "Object_0",
      "primitives": [
        {
          "attributes": {
            "COLOR_0": 3,
            "NORMAL": 1,
            "POSITION": 0,
            "TANGENT": 2,
            "TEXCOORD_0": 4
          },
          "indices": 5,
          "material": 0,
          "mode": 4
        }
      ]
    }
  ],
  "nodes": [
    {
      "children": [
        1
      ],
      "matrix": [
        0.4360889494419098,
        0.0,
        0.0,
        0.0,
        0.0,
        9.683119849100081e-17,
        -0.4360889494419098,
        0.0,
        0.0,
        0.4360889494419098,
        9.683119849100081e-17,
        0.0,
        0.0,
        0.0,
        0.0,
        1.0
      ],
      "name": "Sketchfab_model"
    },
    {
      "children": [
        2
      ],
      "name": "UL6sketch_1.OBJ.cleaner"
    },
    {
      "mesh": 0,
      "name": "Object_2"
    }
  ],
  "samplers": [
    {
      "magFilter": 9728,
      "minFilter": 9728,
      "wrapS": 10497,
      "wrapT": 10497
    },
    {
      "magFilter": 9729,
      "minFilter": 9987,
      "wrapS": 10497,
      "wrapT": 10497
    }
  ],
  "scene": 0,
  "scenes": [
    {
      "name": "Sketchfab_Scene",
      "nodes": [
        0
      ]
    }
  ],
  "textures": [
    {
      "sampler": 0,
      "source": 0
    },
    {
      "sampler": 1,
      "source": 1
    }
  ]
}
