{
  "accessors": [
    {
      "bufferView": 2,
      "componentType": 5126,
      "count": 26947,
      "max": [
        0.8272807598114014,
        0.6611752510070801,
        1.8043653964996338
      ],
      "min": [
        0.0,
        0.0,
        0.0
      ],
      "type": "VEC3"
    },
    {
      "bufferView": 2,
      "byteOffset": 323364,
      "componentType": 5126,
      "count": 26947,
      "max": [
        0.9998307824134827,
        0.999986469745636,
        0.9997110366821289
      ],
      "min": [
        -0.999952495098114,
        -0.9993337988853455,
        -0.9999697208404541
      ],
      "type": "VEC3"
    },
    {
      "bufferView": 3,
      "componentType": 5126,
      "count": 26947,
      "max": [
        0.8549019694328308,
        0.8509804010391235,
        0.8352941274642944,
        1.0
      ],
      "min": [
        0.7333333492279053,
        0.729411780834198,
        0.6039215922355652,
        1.0
      ],
      "type": "VEC4"
    },
    {
      "bufferView": 1,
      "componentType": 5126,
      "count": 26947,
      "max": [
        0.9980400204658508,
        0.9869700074195862
      ],
      "min": [
        0.0019499999471008778,
        0.0019499999471008778
      ],
      "type": "VEC2"
    },
    {
      "bufferView": 0,
      "componentType": 5125,
      "count": 158904,
      "type": "SCALAR"
    }
  ],
  "asset": {
    "extras": {
      "author": "University of Dundee, School of Dentistry (https://sketchfab.com/DundeeDental)",
      "license": "CC-BY-4.0 (http://creativecommons.org/licenses/by/4.0/)",
      "source": "https://sketchfab.com/3d-models/maxillary-first-premolar-f9b48a29d34f4923b683433f030c5c70",
      "title": "Maxillary First Premolar"
    },
    "generator": "Sketchfab-15.11.0",
    "version": "2.0"
  },
  "bufferViews": [
    {
      "buffer": 0,
      "byteLength": 635616,
      "name": "floatBufferViews",
      "target": 34963
    },
    {
      "buffer": 0,
      "byteLength": 215576,
      "byteOffset": 635616,
      "byteStride": 8,
      "name": "floatBufferViews",
      "target": 34962
    },
    {
      "buffer": 0,
      "byteLength": 646728,
      "byteOffset": 851192,
      "byteStride": 12,
      "name": "floatBufferViews",
      "target": 34962
    },
    {
      "buffer": 0,
      "byteLength": 431152,
      "byteOffset": 1497920,
      "byteStride": 16,
      "name": "floatBufferViews",
      "target": 34962
    }
  ],
  "buffers": [
    {
      "byteLength": 1929072,
      "uri": "scene.bin"
    }
  ],
  "extensionsUsed": [
    "KHR_materials_specular"
  ],
  "images": [
    {
      "uri": "textures/defaultMat_baseColor.png"
    }
  ],
  "materials": [
    {
      "doubleSided": true,
      "extensions": {
        "KHR_materials_specular": {
          "specularColorFactor": [
            1.0,
            1.0,
            1.0
          ],
          "specularFactor": 0.03
        }
      },
      "name": "defaultMat",
      "pbrMetallicRoughness": {
        "baseColorTexture": {
          "index": 0
        },
        "metallicFactor": 0.0,
        "roughnessFactor": 0.26
      }
    }
  ],
  "meshes": [
    {
      "name": "Object_0",
      "primitives": [
        {
          "attributes": {
            "COLOR_0": 2,
            "NORMAL": 1,
            "POSITION": 0,
            "TEXCOORD_0": 3
          },
          "indices": 4,
          "material": 0,
          "mode": 4
        }
      ]
    }
  ],
  "nodes": [
    {
      "children": [
        1
      ],
      "matrix": [
        0.4779670536518097,
        0.0,
        0.0,
        0.0,
        0.0,
        1.0613000559529733e-16,
        -0.4779670536518097,
        0.0,
        0.0,
        0.4779670536518097,
        1.0613000559529733e-16,
        0.0,
        0.0,
        0.0,
        0.0,
        1.0
      ],
      "name": "Sketchfab_model"
    },
    {
      "children": [
        2
      ],
      "matrix": [
        1.0,
        0.0,
        0.0,
        0.0,
        0.0,
        1.0,
        0.0,
        0.0,
        0.0,
        0.0,
        1.0,
        0.0,
        1.1440260410308838,
        -7.239193439483643,
        3.302262544631958,
        1.0
      ],
      "name": "UL4sketch_1.OBJ.cleaner.gles"
    },
    {
      "children": [
        3
      ],
      "name": "Object_2"
    },
    {
      "mesh": 0,
      "name": "Object_3"
    }
  ],
  "samplers": [
    {
      "magFilter": 9728,
      "minFilter": 9728,
      "wrapS": 10497,
      "wrapT": 10497
    }
  ],
  "scene": 0,
  "scenes": [
    {
      "name": "Sketchfab_Scene",
      "nodes": [
        0
      ]
    }
  ],
  "textures": [
    {
      "sampler": 0,
      "source": 0
    }
  ]
}
